<svg width="8" height="8" viewBox="0 0 8 8" fill="none" xmlns="http://www.w3.org/2000/svg">
<g clip-path="url(#clip0_320_102)">
<path d="M4.88111 4.00059L7.8722 1.00938C7.95447 0.927034 7.99987 0.81718 8 0.700042C8 0.582838 7.9546 0.472855 7.8722 0.390643L7.61008 0.128594C7.52767 0.0460578 7.41782 0.000854492 7.30055 0.000854492C7.18348 0.000854492 7.07363 0.0460578 6.99122 0.128594L4.00013 3.11962L1.00891 0.128594C0.926634 0.0460578 0.816715 0.000854492 0.699512 0.000854492C0.582439 0.000854492 0.47252 0.0460578 0.390244 0.128594L0.128 0.390643C-0.0426667 0.56131 -0.0426667 0.838903 0.128 1.00938L3.11915 4.00059L0.128 6.99169C0.0456585 7.07416 0.000325203 7.18401 0.000325203 7.30115C0.000325203 7.41829 0.0456585 7.52814 0.128 7.61055L0.390179 7.8726C0.472455 7.95507 0.582439 8.00034 0.699447 8.00034C0.81665 8.00034 0.926569 7.95507 1.00885 7.8726L4.00006 4.88151L6.99115 7.8726C7.07356 7.95507 7.18341 8.00034 7.30049 8.00034H7.30062C7.41776 8.00034 7.52761 7.95507 7.61002 7.8726L7.87213 7.61055C7.95441 7.52821 7.9998 7.41829 7.9998 7.30115C7.9998 7.18401 7.95441 7.07416 7.87213 6.99175L4.88111 4.00059Z" fill="white" fill-opacity="0.4"/>
</g>
<defs>
<clipPath id="clip0_320_102">
<rect width="8" height="8" fill="white"/>
</clipPath>
</defs>
</svg>
