<svg width="15" height="15" viewBox="0 0 15 15" fill="none" xmlns="http://www.w3.org/2000/svg">
<g clip-path="url(#clip0_320_25)">
<path d="M12.1778 2.59271C10.8557 1.27059 9.09779 0.54248 7.22803 0.54248C5.35826 0.54248 3.60039 1.27059 2.27826 2.59271C0.956137 3.91484 0.228027 5.67271 0.228027 7.54248C0.228027 9.41225 0.956164 11.1701 2.27826 12.4922C3.60036 13.8144 5.35826 14.5425 7.22803 14.5425C9.09779 14.5425 10.8557 13.8144 12.1778 12.4922C13.4999 11.1701 14.228 9.41225 14.228 7.54248C14.228 5.67271 13.4999 3.91487 12.1778 2.59271V2.59271ZM7.22803 7.10498C8.3136 7.10498 9.19678 7.98816 9.19678 9.07373C9.19678 9.97271 8.59092 10.7324 7.76621 10.9671C7.70695 10.984 7.66553 11.0373 7.66553 11.0989V11.4676C7.66553 11.7032 7.48448 11.9059 7.24916 11.917C6.9979 11.9288 6.79053 11.7286 6.79053 11.48V11.0988C6.79053 11.0373 6.74935 10.984 6.69026 10.9672C5.86907 10.7337 5.26477 9.97974 5.2593 9.08595C5.25786 8.84738 5.44543 8.64326 5.68393 8.63642C5.93141 8.62931 6.13428 8.82783 6.13428 9.07373C6.13428 9.70269 6.66795 10.2094 7.3062 10.1647C7.84498 10.1271 8.28142 9.69063 8.31904 9.15185C8.36361 8.51357 7.85696 7.97998 7.22803 7.97998C6.14245 7.97998 5.25928 7.0968 5.25928 6.01123C5.25928 5.11225 5.86513 4.35259 6.68985 4.11787C6.7491 4.101 6.79053 4.0477 6.79053 3.9861V3.61734C6.79053 3.38175 6.97157 3.17905 7.20689 3.16797C7.45815 3.15616 7.66553 3.35634 7.66553 3.60498V3.98618C7.66553 4.04762 7.70671 4.10094 7.7658 4.11776C8.58698 4.35127 9.19128 5.10522 9.19675 5.99901C9.1982 6.23758 9.01062 6.4417 8.77213 6.44854C8.52464 6.45565 8.32178 6.25713 8.32178 6.01123C8.32178 5.38227 7.78811 4.87559 7.14985 4.92022C6.61107 4.95787 6.17464 5.39433 6.13701 5.93311C6.09244 6.57139 6.59909 7.10498 7.22803 7.10498V7.10498Z" fill="white"/>
</g>
<defs>
<clipPath id="clip0_320_25">
<rect width="14" height="14" fill="white" transform="translate(0.228027 0.54248)"/>
</clipPath>
</defs>
</svg>
