<svg width="64" height="9" viewBox="0 0 64 9" fill="none" xmlns="http://www.w3.org/2000/svg">
<path d="M5.99951 8.74365H0.778809V0.341309H1.68115V7.90576H5.99951V8.74365Z" fill="white"/>
<path d="M8.36084 2.06396C7.70068 2.73193 7.37061 3.55811 7.37061 4.54248C7.37061 5.52686 7.70068 6.35303 8.36084 7.021C9.021 7.68896 9.83154 8.02295 10.7925 8.02295C11.7534 8.02295 12.564 7.68896 13.2241 7.021C13.8843 6.35303 14.2144 5.52686 14.2144 4.54248C14.2144 3.55811 13.8843 2.73193 13.2241 2.06396C12.564 1.396 11.7534 1.06201 10.7925 1.06201C9.83154 1.06201 9.021 1.396 8.36084 2.06396ZM13.8511 1.48389C14.6909 2.32373 15.1108 3.34326 15.1108 4.54248C15.1108 5.7417 14.6909 6.76123 13.8511 7.60107C13.0112 8.44092 11.9917 8.86084 10.7925 8.86084C9.59326 8.86084 8.57373 8.44092 7.73389 7.60107C6.89404 6.76123 6.47412 5.7417 6.47412 4.54248C6.47412 3.34326 6.89404 2.32373 7.73389 1.48389C8.57373 0.644043 9.59326 0.224121 10.7925 0.224121C11.9917 0.224121 13.0112 0.644043 13.8511 1.48389Z" fill="white"/>
<path d="M17.812 7.60107C16.9722 6.76123 16.5522 5.7417 16.5522 4.54248C16.5522 3.34326 16.9722 2.32373 17.812 1.48389C18.6519 0.644043 19.6714 0.224121 20.8706 0.224121C21.2964 0.224121 21.7046 0.284668 22.0952 0.405762C22.4858 0.522949 22.8081 0.665527 23.062 0.833496C23.3198 1.00146 23.5444 1.17139 23.7358 1.34326C23.9312 1.51514 24.0718 1.66162 24.1577 1.78271L24.2925 1.96436L23.689 2.50342C23.6655 2.46436 23.6304 2.41357 23.5835 2.35107C23.5366 2.28467 23.4272 2.16943 23.2554 2.00537C23.0835 1.84131 22.896 1.69678 22.6929 1.57178C22.4937 1.44287 22.23 1.32568 21.9019 1.22021C21.5737 1.11475 21.23 1.06201 20.8706 1.06201C19.9097 1.06201 19.0991 1.396 18.439 2.06396C17.7788 2.73193 17.4487 3.55811 17.4487 4.54248C17.4487 5.52686 17.7788 6.35303 18.439 7.021C19.0991 7.68896 19.9097 8.02295 20.8706 8.02295C21.2065 8.02295 21.5269 7.98389 21.8315 7.90576C22.1362 7.82373 22.3862 7.72803 22.5815 7.61865C22.7769 7.50537 22.9487 7.396 23.0972 7.29053C23.2456 7.18115 23.3511 7.08545 23.4136 7.00342L23.5132 6.88623V5.26318H17.4487L17.4503 4.42529H24.4097V7.12646C24.3784 7.17334 24.3276 7.23584 24.2573 7.31396C24.1909 7.38818 24.0464 7.5249 23.8237 7.72412C23.6011 7.92334 23.3608 8.10107 23.103 8.25732C22.8491 8.41357 22.519 8.5542 22.1128 8.6792C21.7104 8.80029 21.2964 8.86084 20.8706 8.86084C19.6714 8.86084 18.6519 8.44092 17.812 7.60107Z" fill="white"/>
<path d="M27.978 2.06396C27.3179 2.73193 26.9878 3.55811 26.9878 4.54248C26.9878 5.52686 27.3179 6.35303 27.978 7.021C28.6382 7.68896 29.4487 8.02295 30.4097 8.02295C31.3706 8.02295 32.1812 7.68896 32.8413 7.021C33.5015 6.35303 26.9878 5.52686 26.9878 4.54248C26.9878 3.55811 33.5015 2.73193 32.8413 2.06396C32.1812 1.396 31.3706 1.06201 30.4097 1.06201C29.4487 1.06201 28.6382 1.396 27.978 2.06396ZM33.4683 1.48389C34.3081 2.32373 34.728 3.34326 34.728 4.54248C34.728 5.7417 34.3081 6.76123 33.4683 7.60107C32.6284 8.44092 31.6089 8.86084 30.4097 8.86084C29.2104 8.86084 28.1909 8.44092 27.3511 7.60107C26.5112 6.76123 26.0913 5.7417 26.0913 4.54248C26.0913 3.34326 26.5112 2.32373 27.3511 1.48389C28.1909 0.644043 29.2104 0.224121 30.4097 0.224121C31.6089 0.224121 32.6284 0.644043 33.4683 1.48389Z" fill="white"/>
<path d="M35.2085 0.341309H41.3901V1.18506H38.7476V8.74365H37.8511V1.18506H35.2085V0.341309Z" fill="white"/>
<path d="M42.8843 8.74365V0.341309H43.7866V8.74365H42.8843Z" fill="white"/>
<path d="M53.9292 1.90576L50.5659 6.34131L47.2085 1.90576V8.74365H46.3062V0.341309H47.0854L50.5659 4.90576L54.0464 0.341309H54.8257V8.74365H53.9292V1.90576Z" fill="white"/>
<path d="M58.2476 7.90576H63.228V8.74365H57.3452V0.341309H63.105V1.18506H58.2476V3.94482H62.144V4.78271H58.2476V7.90576Z" fill="white"/>
</svg>
