<svg width="12" height="12" viewBox="0 0 12 12" fill="none" xmlns="http://www.w3.org/2000/svg">
<g clip-path="url(#clip0_320_34)">
<path d="M11.9932 11.6895L11.6932 10.4895C11.5509 9.90736 11.1193 9.4392 10.5507 9.25001L8.35068 8.517C7.81418 8.2935 7.56869 7.4295 7.51568 7.10149C7.92447 6.76155 8.18751 6.2779 8.25068 5.74999C8.24165 5.65983 8.26293 5.56922 8.31117 5.49248C8.38912 5.47296 8.45294 5.41713 8.48266 5.34248C8.62661 4.99392 8.71697 4.62558 8.75067 4.24999C8.75074 4.22958 8.74823 4.20926 8.74317 4.1895C8.70736 4.04355 8.62155 3.91477 8.50066 3.82549V2.49998C8.50066 1.69448 8.25466 1.36399 7.99565 1.17248C7.9462 0.7845 7.5307 0 6.0007 0C4.64327 0.0546563 3.55535 1.14258 3.50069 2.50001V3.82552C3.3798 3.91479 3.294 4.04358 3.25819 4.18952C3.25312 4.20928 3.25062 4.22962 3.25069 4.25002C3.28434 4.62579 3.37469 4.9943 3.51869 5.34302C3.54035 5.41369 3.59714 5.46804 3.66869 5.48653C3.6967 5.50052 3.7492 5.57304 3.7492 5.75004C3.81274 6.27945 4.0773 6.7642 4.48821 7.10405C4.43571 7.43154 4.1917 8.29505 3.67022 8.51304L1.45071 9.25003C0.882514 9.4392 0.451264 9.90689 0.308717 10.4885L0.0087172 11.6885C-0.0252437 11.8224 0.0557094 11.9584 0.189538 11.9924C0.20953 11.9974 0.230084 12 0.250709 12H11.7507C11.8888 12 12.0007 11.888 12.0007 11.75C12.0006 11.7296 11.9981 11.7093 11.9932 11.6895Z" fill="white"/>
</g>
<defs>
<clipPath id="clip0_320_34">
<rect width="12" height="12" fill="white"/>
</clipPath>
</defs>
</svg>
