<svg width="16" height="16" viewBox="0 0 16 16" fill="none" xmlns="http://www.w3.org/2000/svg">
<g clip-path="url(#clip0_320_98)">
<path d="M3.79614 5.19111C3.85939 5.94777 4.00464 6.98424 4.3333 8.07252C5.0313 10.3836 6.26436 12.027 8.00014 12.9609C9.73592 12.027 10.969 10.3836 11.667 8.07252C11.9956 6.98433 12.1408 5.94783 12.2041 5.19111L8.00014 3.08911L3.79614 5.19111Z" fill="white"/>
<path d="M15.058 3.73929C15.0493 3.57073 14.9505 3.41988 14.7995 3.34441L8.2097 0.0494765C8.07773 -0.0164922 7.92242 -0.0164922 7.79045 0.0494765L1.20061 3.34441C1.04964 3.41988 0.950888 3.57073 0.942138 3.73929C0.937138 3.83522 0.828763 6.11954 1.60692 8.77163C2.06736 10.3408 2.74461 11.7113 3.61986 12.8452C4.72283 14.274 6.14045 15.3251 7.83336 15.9693C7.88708 15.9898 7.94354 16 8.00008 16C8.05661 16 8.11308 15.9898 8.16679 15.9693C9.8597 15.3251 11.2773 14.274 12.3803 12.8452C13.2555 11.7113 13.9328 10.3408 14.3932 8.77163C15.1714 6.11954 15.063 3.83522 15.058 3.73929V3.73929ZM8.20783 13.9085C8.14236 13.9408 8.0712 13.957 8.00008 13.957C7.92895 13.957 7.85776 13.9408 7.79233 13.9085C5.70508 12.8765 4.23933 11.0042 3.43583 8.3436C3.03395 7.01288 2.88886 5.75894 2.83792 4.94138C2.8262 4.75363 2.92789 4.5771 3.09614 4.49297L7.79048 2.14582C7.92245 2.07988 8.07776 2.07985 8.20973 2.14582L12.9041 4.49297C13.0724 4.57707 13.174 4.75366 13.1623 4.94141C13.1114 5.75904 12.9663 7.013 12.5644 8.3436C11.7608 11.0041 10.2951 12.8764 8.20783 13.9085V13.9085Z" fill="white"/>
</g>
<defs>
<clipPath id="clip0_320_98">
<rect width="16" height="16" fill="white"/>
</clipPath>
</defs>
</svg>
