<svg width="12" height="12" viewBox="0 0 12 12" fill="none" xmlns="http://www.w3.org/2000/svg">
<g clip-path="url(#clip0_320_77)">
<path d="M11.9828 4.35131C11.9414 4.23151 11.8314 4.1442 11.699 4.12611L7.97896 3.61733L6.31525 0.444687C6.25605 0.331746 6.13382 0.260254 6.00002 0.260254C5.86619 0.260254 5.74399 0.331746 5.68476 0.444687L4.02099 3.61733L0.301004 4.12611C0.168606 4.1442 0.058567 4.23151 0.0172234 4.35129C-0.0241436 4.47109 0.0103562 4.60258 0.106192 4.69049L2.79793 7.16005L2.16259 10.6472C2.13995 10.7713 2.19418 10.8967 2.30244 10.9708C2.36368 11.0127 2.43622 11.034 2.50911 11.034C2.56508 11.034 2.62124 11.0214 2.67266 10.996L6 9.34954L9.32719 10.9959C9.44567 11.0545 9.58918 11.0448 9.69743 10.9708C9.80569 10.8967 9.85995 10.7713 9.83733 10.6471L9.20178 7.16005L11.8938 4.69046C11.9896 4.60258 12.0242 4.47109 11.9828 4.35131Z" fill="#FFC107"/>
</g>
<defs>
<clipPath id="clip0_320_77">
<rect width="12" height="11.2941" fill="white"/>
</clipPath>
</defs>
</svg>
