<svg width="280" height="192" viewBox="0 0 280 192" fill="none" xmlns="http://www.w3.org/2000/svg">
<g clip-path="url(#clip0_396_38)">
<path d="M279.397 142.594L247.504 174.389L190.639 117.675L135.35 62.5456L135.228 62.4105C133.705 60.6606 132.061 59.0207 130.307 57.5022L130.171 57.3808C121.254 49.6668 109.602 45.0013 96.8519 45.0013C68.7386 45.0013 45.9532 67.7242 45.9532 95.7652C45.9532 123.806 68.7363 146.541 96.8519 146.541C110.323 146.541 122.572 141.335 131.666 132.805C132.468 132.059 133.244 131.3 133.976 130.501L154.123 110.421L186.138 142.352L169.785 158.661L169.636 158.824L159.685 168.748C157.85 170.308 155.947 171.84 153.976 173.262C138.002 185.044 118.236 192 96.8519 192C43.6981 192 0.602753 149.021 0.602753 95.9943C0.602753 42.9675 43.6981 0 96.8519 0C108.134 0 118.969 1.93995 129.03 5.49003C140.694 9.61271 151.299 15.9158 160.393 23.8886L169.052 32.5256L169.147 32.6333L279.397 142.592V142.594Z" fill="url(#paint0_linear_396_38)"/>
<path d="M246.916 80.5388L215.158 48.8629L246.916 17.1893L278.676 48.8629L246.916 80.5388Z" fill="url(#paint1_linear_396_38)"/>
</g>
<defs>
<linearGradient id="paint0_linear_396_38" x1="140" y1="0" x2="140" y2="192" gradientUnits="userSpaceOnUse">
<stop stop-color="#FFCA28"/>
<stop offset="1" stop-color="#FFA726"/>
</linearGradient>
<linearGradient id="paint1_linear_396_38" x1="246.917" y1="17.1893" x2="246.917" y2="80.5388" gradientUnits="userSpaceOnUse">
<stop stop-color="#FFCA28"/>
<stop offset="1" stop-color="#FFA726"/>
</linearGradient>
<clipPath id="clip0_396_38">
<rect width="278.794" height="192" fill="white" transform="translate(0.602753)"/>
</clipPath>
</defs>
</svg>
